<?xml version="1.0" standalone="no"?>
<!DOCTYPE svg PUBLIC "-//W3C//DTD SVG 20010904//EN"
 "http://www.w3.org/TR/2001/REC-SVG-20010904/DTD/svg10.dtd">
<svg version="1.0" xmlns="http://www.w3.org/2000/svg"
 width="3155.000000pt" height="3155.000000pt" viewBox="0 0 3155.000000 3155.000000"
 preserveAspectRatio="xMidYMid meet">
<metadata>
Created by potrace 1.11, written by Peter Selinger 2001-2013
</metadata>
<g transform="translate(0.000000,3155.000000) scale(0.100000,-0.100000)"
fill="#000000" stroke="none">
<path d="M13599 27526 c-2 -2 -74 -7 -159 -10 -154 -6 -198 -9 -360 -22 -47
-4 -101 -8 -120 -9 -50 -4 -171 -16 -200 -20 -14 -2 -50 -6 -80 -10 -66 -7
-205 -25 -240 -30 -14 -2 -45 -6 -70 -10 -25 -3 -56 -8 -70 -10 -14 -2 -43 -7
-65 -10 -22 -3 -51 -8 -65 -10 -14 -2 -70 -11 -125 -20 -177 -29 -552 -105
-735 -151 -58 -14 -116 -28 -130 -30 -14 -3 -34 -8 -45 -11 -11 -4 -24 -8 -30
-9 -30 -6 -337 -91 -435 -121 -448 -134 -1023 -348 -1385 -513 -38 -18 -92
-42 -120 -55 -27 -12 -72 -33 -100 -45 -111 -50 -599 -298 -630 -320 -5 -4
-41 -25 -80 -45 -102 -56 -349 -201 -428 -251 -37 -24 -70 -44 -73 -44 -20 0
-661 -438 -805 -550 -25 -19 -61 -46 -79 -60 -39 -29 -303 -236 -339 -265 -13
-11 -28 -24 -35 -30 -6 -5 -38 -32 -71 -60 -115 -95 -325 -281 -465 -410 -98
-91 -495 -488 -585 -585 -39 -42 -104 -114 -145 -160 -41 -46 -79 -88 -85 -94
-5 -6 -37 -43 -70 -81 -33 -39 -62 -72 -65 -75 -3 -3 -50 -59 -103 -125 -54
-66 -109 -133 -123 -150 -175 -213 -589 -792 -731 -1025 -12 -19 -57 -93 -102
-165 -74 -120 -232 -392 -315 -545 -48 -88 -282 -555 -328 -655 -20 -44 -52
-115 -72 -158 -20 -44 -36 -84 -36 -91 0 -7 -4 -16 -9 -21 -20 -21 -202 -482
-294 -746 -122 -345 -283 -886 -314 -1048 -2 -14 -6 -28 -8 -31 -9 -15 -135
-595 -135 -622 0 -7 70 -6 665 7 484 11 1056 28 1315 40 58 3 175 7 260 11 85
3 158 9 163 13 4 4 9 17 12 29 23 122 169 607 255 847 66 186 174 459 219 558
17 37 31 69 31 72 0 2 13 32 29 67 16 35 41 90 56 123 54 119 195 396 282 555
17 30 45 82 63 115 18 33 39 67 46 76 8 8 14 18 14 22 0 20 323 524 430 672
166 229 458 607 489 635 3 3 33 37 66 75 77 90 106 122 196 220 40 44 78 85
84 91 86 96 402 406 539 529 43 39 89 80 103 93 14 13 78 67 142 120 64 53
118 99 121 103 3 3 57 46 120 95 435 341 844 611 1330 879 147 81 576 291 700
343 19 8 55 23 80 34 291 129 767 299 1110 395 143 40 383 102 420 109 14 3
41 9 60 14 29 7 92 21 315 66 11 2 34 6 50 9 17 3 41 8 55 10 49 10 74 14 185
31 17 3 37 7 45 9 8 2 38 6 65 10 28 3 66 8 85 10 19 3 73 9 120 15 47 6 96
13 110 15 51 7 184 20 320 29 52 4 115 9 140 11 80 7 431 18 570 18 167 -1
570 -12 598 -18 11 -2 67 -6 124 -10 57 -3 117 -8 133 -10 17 -2 64 -6 105
-10 41 -4 89 -8 105 -11 17 -2 55 -6 85 -9 30 -4 66 -8 80 -10 14 -3 59 -9
100 -15 97 -13 239 -36 370 -60 58 -11 117 -21 133 -24 15 -3 35 -7 45 -10 9
-3 29 -8 45 -11 15 -3 37 -7 50 -10 37 -8 70 -15 117 -25 71 -15 199 -47 265
-65 33 -9 69 -18 80 -21 44 -8 309 -88 485 -146 447 -146 837 -308 1270 -525
124 -62 236 -119 250 -127 35 -21 309 -176 340 -193 14 -7 86 -52 160 -99 74
-48 144 -91 155 -98 11 -6 22 -13 25 -16 3 -3 43 -30 90 -62 137 -91 416 -289
467 -333 19 -15 33 -26 103 -80 36 -28 67 -52 70 -55 4 -5 27 -23 139 -115
178 -145 473 -418 668 -615 l93 -95 92 49 c51 27 145 75 208 108 63 33 147 77
185 98 39 20 108 58 155 82 112 60 392 210 565 303 60 33 563 308 640 350 22
12 76 41 119 65 43 24 96 53 118 65 l38 22 -21 24 c-212 245 -316 356 -584
624 -210 210 -385 377 -490 466 -22 19 -44 39 -50 45 -19 19 -149 130 -280
238 -71 59 -139 115 -150 124 -67 56 -395 303 -535 402 -184 131 -482 328
-665 439 -66 41 -137 84 -157 97 -21 13 -40 24 -43 24 -3 0 -23 11 -45 25
-194 122 -852 456 -1180 598 -412 178 -882 352 -1270 469 -120 36 -345 99
-400 113 -76 18 -300 74 -330 82 -14 4 -29 7 -35 8 -5 1 -53 11 -105 23 -52
12 -106 24 -120 26 -14 3 -117 23 -230 45 -113 22 -225 42 -250 46 -25 3 -67
10 -95 15 -45 8 -120 19 -245 35 -25 4 -56 8 -70 10 -14 2 -47 6 -75 10 -27 3
-66 7 -85 10 -32 4 -94 10 -195 20 -22 2 -67 6 -100 9 -33 3 -87 8 -120 11
-33 3 -98 8 -145 11 -47 2 -121 7 -165 10 -92 7 -1030 15 -1036 10z"/>
<path d="M29090 24603 c-41 -7 -93 -15 -115 -18 -22 -3 -65 -10 -95 -15 -30
-5 -71 -12 -90 -14 -37 -5 -178 -25 -220 -31 -14 -2 -50 -7 -80 -10 -30 -4
-62 -9 -70 -10 -8 -2 -42 -6 -75 -9 -33 -4 -96 -12 -140 -18 -44 -6 -87 -10
-95 -10 -13 0 -97 -9 -210 -23 -56 -6 -140 -14 -220 -20 -41 -3 -91 -8 -110
-10 -19 -2 -66 -6 -105 -10 -38 -3 -97 -7 -130 -10 -33 -2 -96 -7 -140 -10
-44 -2 -118 -7 -165 -10 -149 -10 -444 -24 -640 -31 -158 -5 -937 -5 -1090 0
-163 6 -398 17 -445 21 -22 2 -85 6 -140 10 -55 3 -116 8 -135 10 -19 2 -66 7
-105 10 -125 11 -360 36 -455 50 -14 2 -47 7 -75 11 -27 3 -59 8 -70 10 -10 2
-37 6 -60 9 -22 3 -78 13 -125 20 -83 15 -103 18 -165 31 l-30 6 30 -29 c17
-16 44 -40 61 -53 40 -32 207 -172 214 -180 3 -3 45 -39 95 -80 49 -41 122
-102 160 -135 39 -33 93 -79 120 -102 28 -23 66 -55 85 -71 19 -16 127 -107
240 -202 330 -278 298 -247 276 -263 -11 -8 -36 -23 -55 -33 -20 -11 -84 -47
-144 -81 -59 -35 -110 -63 -113 -63 -3 0 -30 -16 -60 -35 -30 -19 -57 -35 -60
-35 -3 0 -47 -24 -97 -54 -51 -29 -171 -97 -267 -151 -96 -54 -188 -106 -205
-115 -186 -105 -678 -377 -740 -410 -44 -24 -84 -46 -90 -50 -5 -4 -46 -26
-90 -50 -135 -72 -190 -102 -200 -110 -5 -4 -59 -33 -120 -65 -60 -32 -114
-61 -120 -65 -5 -4 -59 -33 -120 -65 -60 -32 -123 -66 -140 -75 -16 -9 -84
-45 -150 -80 -66 -34 -124 -66 -130 -70 -5 -4 -73 -40 -150 -80 -174 -91 -289
-151 -380 -200 -146 -78 -978 -505 -1040 -534 -16 -8 -194 -95 -395 -194 -343
-168 -426 -209 -675 -327 -298 -142 -821 -382 -1065 -490 -47 -20 -103 -45
-125 -55 -142 -64 -924 -397 -950 -404 -5 -2 -21 -8 -35 -13 -121 -50 -399
-161 -670 -266 -211 -82 -950 -352 -1020 -373 -8 -2 -184 -60 -390 -128 -531
-176 -842 -272 -1305 -401 -190 -54 -211 -59 -252 -69 -10 -2 -68 -18 -129
-35 -345 -94 -1114 -278 -1434 -341 -58 -12 -112 -23 -120 -25 -8 -2 -105 -22
-215 -44 -250 -50 -449 -88 -565 -107 -14 -3 -36 -7 -50 -9 -14 -3 -38 -8 -55
-10 -16 -3 -41 -8 -55 -10 -14 -3 -36 -7 -50 -10 -53 -9 -276 -46 -305 -51
-16 -2 -41 -6 -55 -9 -44 -8 -87 -15 -131 -20 -24 -3 -51 -7 -59 -10 -8 -2
-35 -7 -60 -10 -25 -3 -70 -10 -100 -15 -60 -10 -98 -15 -175 -26 -27 -3 -52
-7 -55 -9 -3 -2 -34 -6 -70 -10 -36 -4 -72 -8 -80 -10 -8 -1 -40 -6 -70 -10
-30 -4 -64 -9 -75 -11 -11 -2 -42 -6 -70 -9 -27 -4 -61 -8 -75 -10 -14 -2 -83
-11 -155 -20 -71 -9 -141 -18 -155 -20 -14 -2 -52 -7 -85 -10 -33 -4 -71 -8
-85 -10 -55 -8 -158 -20 -255 -29 -46 -5 -73 -8 -175 -21 -19 -2 -62 -7 -95
-10 -33 -3 -79 -8 -102 -10 -93 -11 -205 -22 -295 -30 -32 -3 -79 -8 -105 -10
-26 -3 -75 -7 -108 -10 -33 -3 -80 -8 -105 -10 -25 -2 -74 -7 -110 -10 -96 -8
-179 -15 -230 -20 -25 -2 -83 -7 -130 -10 -47 -3 -101 -8 -120 -10 -19 -3 -80
-7 -135 -10 -55 -4 -116 -8 -135 -10 -19 -2 -84 -6 -145 -10 -60 -4 -130 -8
-155 -10 -25 -2 -85 -6 -135 -9 -49 -4 -117 -9 -150 -11 -33 -3 -107 -7 -165
-10 -58 -3 -139 -8 -180 -10 -41 -2 -127 -7 -190 -10 -63 -3 -144 -7 -180 -10
-36 -2 -123 -7 -195 -10 -71 -3 -175 -8 -230 -10 -55 -3 -156 -7 -225 -10 -69
-3 -174 -7 -233 -10 -152 -6 -333 -12 -897 -30 -766 -24 -2207 -43 -3297 -45
l-413 0 0 -1170 0 -1170 458 0 c1106 -1 2285 -18 3252 -45 431 -12 555 -16
640 -20 52 -2 165 -6 250 -10 85 -3 207 -8 270 -11 63 -3 156 -7 205 -9 248
-11 347 -16 425 -20 47 -3 128 -7 180 -10 52 -2 136 -7 185 -10 50 -3 133 -7
185 -10 52 -3 122 -7 155 -10 33 -2 101 -7 150 -10 50 -3 115 -8 145 -10 30
-2 100 -7 155 -10 55 -3 118 -8 140 -10 22 -2 78 -7 125 -10 47 -3 108 -8 135
-10 28 -2 84 -7 125 -10 41 -3 98 -8 125 -10 28 -3 82 -7 120 -10 66 -5 101
-8 228 -20 28 -3 79 -7 112 -10 33 -3 101 -10 150 -15 50 -5 117 -12 150 -15
33 -2 76 -6 95 -9 19 -2 71 -8 115 -12 44 -4 82 -8 85 -9 3 -1 43 -5 90 -9 47
-5 92 -9 100 -11 8 -1 45 -6 82 -9 37 -4 77 -9 90 -11 13 -2 50 -6 83 -10 33
-4 74 -8 90 -10 17 -2 53 -7 80 -10 28 -3 61 -7 75 -10 14 -2 52 -7 85 -10 33
-3 74 -8 90 -10 17 -2 95 -13 175 -24 80 -11 165 -22 190 -25 25 -3 54 -8 65
-10 11 -2 45 -7 75 -11 30 -4 62 -9 70 -10 8 -1 40 -6 70 -10 30 -4 62 -9 70
-10 8 -2 38 -6 65 -9 28 -4 57 -9 65 -11 8 -2 35 -6 60 -9 25 -3 56 -8 70 -11
14 -3 41 -7 60 -10 19 -3 49 -7 65 -9 29 -4 373 -62 425 -72 14 -2 41 -7 60
-9 19 -3 79 -14 135 -25 55 -11 114 -22 130 -25 64 -11 91 -16 115 -20 49 -10
75 -15 100 -20 27 -5 60 -12 100 -20 14 -2 40 -7 57 -10 18 -3 61 -12 95 -20
35 -7 83 -17 108 -20 24 -4 48 -9 52 -11 4 -3 20 -7 35 -9 31 -4 269 -55 373
-79 36 -8 77 -17 92 -20 16 -2 76 -16 135 -30 304 -73 369 -88 383 -91 8 -2
44 -11 80 -20 36 -9 83 -20 105 -26 22 -5 67 -16 100 -25 33 -8 76 -20 95 -25
40 -10 123 -32 130 -34 3 -1 19 -5 35 -9 855 -218 2033 -598 3036 -980 370
-140 1009 -397 1227 -492 17 -8 47 -20 65 -28 241 -103 478 -206 545 -237 46
-22 85 -39 88 -39 4 0 128 -56 299 -135 44 -21 118 -54 165 -75 100 -45 207
-94 345 -160 182 -87 240 -114 245 -115 6 -2 127 -60 405 -195 238 -115 883
-438 1115 -557 96 -50 234 -121 305 -158 72 -36 171 -88 220 -114 262 -137
395 -207 440 -231 28 -15 95 -51 150 -80 55 -29 123 -65 150 -80 28 -15 86
-47 130 -70 132 -71 208 -112 255 -138 25 -14 74 -41 110 -60 36 -19 89 -47
118 -63 28 -16 76 -42 105 -58 85 -46 531 -293 672 -371 72 -40 155 -86 185
-103 30 -17 71 -39 90 -50 19 -11 55 -31 80 -45 126 -71 282 -159 335 -189 33
-19 68 -37 78 -40 9 -3 17 -9 17 -14 0 -5 4 -9 10 -9 5 0 55 -26 112 -59 57
-32 173 -98 258 -146 85 -48 160 -92 167 -97 9 -7 -25 -41 -117 -119 -71 -60
-162 -136 -202 -170 -71 -59 -218 -183 -267 -224 -13 -11 -56 -47 -95 -80 -39
-33 -98 -83 -131 -110 -33 -27 -62 -52 -65 -55 -3 -3 -27 -24 -55 -45 -27 -22
-56 -47 -65 -55 -8 -8 -77 -66 -153 -129 -75 -63 -137 -116 -137 -118 0 -2 10
-1 23 2 23 5 42 8 142 25 33 5 71 12 84 15 12 2 42 7 65 9 22 3 50 8 62 10 12
2 45 7 74 11 29 4 60 8 69 10 9 1 45 6 81 10 36 3 76 8 90 10 14 2 50 6 80 10
30 3 71 8 90 10 19 2 69 7 110 10 41 4 95 8 120 10 122 10 221 18 280 21 112
6 297 14 428 20 136 5 994 5 1102 0 36 -2 144 -7 240 -11 96 -4 193 -8 215
-10 22 -1 96 -5 165 -9 185 -11 218 -13 300 -20 41 -3 107 -9 145 -12 39 -2
90 -7 115 -10 25 -2 72 -6 105 -9 33 -3 78 -7 100 -9 22 -2 72 -7 110 -11 39
-3 84 -8 100 -10 17 -2 57 -7 90 -10 33 -4 71 -8 85 -10 14 -2 52 -6 85 -10
33 -3 71 -7 85 -10 14 -2 45 -6 70 -9 25 -3 65 -8 90 -11 25 -3 56 -7 70 -10
14 -3 48 -7 75 -10 28 -3 61 -8 75 -10 14 -3 43 -8 65 -10 22 -3 65 -10 95
-15 30 -5 74 -12 98 -15 23 -3 82 -12 130 -20 113 -19 110 -19 80 12 -20 22
-174 212 -301 373 -46 58 -156 202 -223 290 -43 58 -82 110 -86 115 -153 191
-711 1003 -918 1335 -124 199 -290 472 -290 476 0 2 -18 33 -40 69 -22 36 -40
68 -40 72 0 3 -6 14 -14 22 -8 9 -27 41 -44 71 -16 30 -40 73 -52 95 -129 224
-412 771 -522 1010 -59 127 -168 374 -168 380 0 3 -9 24 -19 48 -27 58 -131
324 -131 334 0 4 -6 20 -14 35 -8 15 -22 53 -31 85 -22 74 -26 66 -60 -138
-14 -86 -28 -169 -31 -185 -2 -16 -13 -74 -24 -129 -10 -55 -22 -120 -26 -145
-3 -25 -8 -54 -10 -65 -3 -11 -27 -146 -55 -300 -27 -154 -51 -289 -53 -300
-13 -72 -19 -102 -23 -120 -2 -11 -6 -36 -9 -55 -8 -56 -35 -184 -38 -188 -2
-2 -34 15 -70 37 -37 23 -69 41 -73 41 -3 0 -14 6 -22 14 -9 7 -50 31 -91 53
-41 23 -115 64 -163 92 -49 28 -90 51 -93 51 -2 0 -33 18 -69 40 -36 22 -67
40 -70 40 -2 0 -27 14 -55 30 -28 17 -147 84 -263 149 -117 65 -228 127 -247
138 -19 11 -107 59 -195 108 -88 48 -173 96 -190 105 -33 18 -121 67 -200 110
-190 104 -380 208 -435 238 -36 19 -83 45 -105 57 -22 12 -80 43 -130 70 -49
27 -124 67 -165 89 -41 23 -97 52 -125 66 -27 14 -52 27 -55 30 -3 3 -34 20
-70 39 -36 18 -96 50 -135 71 -38 20 -115 61 -170 90 -55 29 -131 70 -170 90
-38 21 -151 79 -250 130 -99 51 -223 115 -275 143 -133 70 -1186 598 -1355
679 -77 37 -212 101 -300 144 -88 42 -225 107 -305 144 -80 37 -190 89 -245
115 -55 26 -188 87 -295 135 -107 48 -226 102 -265 120 -63 29 -151 68 -275
123 -25 11 -128 56 -230 99 -102 44 -203 88 -225 98 -186 83 -1012 416 -1390
561 -33 13 -63 25 -67 28 -4 4 2247 6 5002 6 2756 0 5010 -3 5010 -7 0 -4 -7
-25 -14 -45 -13 -33 -46 -125 -127 -348 -72 -201 -371 -1023 -376 -1035 -3 -8
-7 -19 -8 -25 -2 -5 -12 -34 -24 -63 -29 -73 -27 -78 17 -42 400 337 859 671
1320 960 194 122 227 142 422 258 205 121 216 127 348 201 46 25 91 51 100 56
80 48 790 420 850 445 13 6 90 42 170 81 388 189 873 403 1255 555 106 42 206
82 222 89 17 7 81 32 143 55 62 24 109 46 105 50 -4 4 -30 15 -58 25 -181 65
-811 322 -968 394 -37 17 -70 31 -72 31 -3 0 -44 18 -91 40 -47 22 -87 40 -89
40 -2 0 -60 27 -130 60 -70 33 -128 60 -130 60 -7 0 -313 148 -525 255 -268
134 -379 192 -605 315 -27 15 -81 45 -120 65 -38 21 -74 41 -80 45 -5 4 -30
19 -55 32 -125 70 -147 82 -172 99 -14 11 -29 19 -32 19 -14 0 -504 301 -721
443 -238 155 -777 541 -805 576 -3 4 -25 22 -50 41 -47 36 -210 171 -244 202
-26 24 -39 23 -26 -2 6 -12 31 -78 56 -148 24 -70 47 -134 51 -142 3 -8 7 -17
8 -20 1 -3 4 -12 7 -20 4 -8 41 -112 83 -230 80 -225 113 -315 270 -750 52
-145 95 -268 95 -272 0 -4 -2267 -8 -5037 -7 -3022 0 -5030 4 -5018 9 11 5
115 46 230 91 362 139 977 389 1220 495 44 20 89 39 100 44 11 4 36 15 56 24
19 8 87 37 150 64 109 47 178 77 244 108 17 7 179 81 360 163 390 176 426 193
614 282 79 38 145 69 147 69 3 0 134 62 444 212 373 180 1524 760 1685 848 28
15 104 56 170 90 162 84 316 166 395 208 36 19 108 57 160 85 52 27 118 62
145 77 28 15 86 47 130 70 44 24 127 69 185 100 58 31 139 75 180 97 41 22 93
51 115 63 22 12 119 65 215 118 96 52 337 185 535 295 567 316 726 405 849
476 49 28 90 51 91 51 2 0 105 59 230 130 126 72 230 128 233 125 3 -3 7 -11
8 -18 1 -7 7 -39 12 -72 6 -33 18 -99 27 -148 8 -48 18 -104 21 -125 3 -20 9
-55 14 -77 5 -22 14 -69 19 -105 16 -94 21 -123 26 -145 2 -11 15 -85 29 -165
14 -80 28 -156 31 -170 3 -14 8 -41 11 -60 4 -19 8 -44 10 -55 2 -11 9 -47 14
-80 5 -33 12 -71 15 -85 3 -14 16 -90 30 -170 14 -80 29 -158 33 -174 l8 -29
13 44 c21 68 153 409 219 564 171 401 409 881 639 1290 53 94 107 190 121 215
187 334 648 1057 957 1498 106 151 445 615 492 672 7 8 60 78 119 155 59 77
110 142 114 145 3 3 30 36 60 75 66 84 72 91 144 177 63 76 67 73 -64 51z"/>
<path d="M13638 23555 c-2 -2 -48 -6 -103 -9 -55 -4 -120 -8 -145 -11 -25 -2
-76 -7 -115 -10 -38 -3 -83 -8 -100 -10 -16 -2 -51 -7 -77 -10 -131 -15 -172
-20 -233 -31 -16 -3 -41 -7 -55 -9 -22 -2 -121 -18 -190 -30 -465 -80 -1048
-252 -1555 -460 -524 -215 -1131 -555 -1574 -882 -59 -44 -281 -213 -302 -231
-13 -11 -71 -59 -129 -107 -178 -148 -445 -397 -595 -555 -144 -151 -242 -261
-370 -415 -64 -77 -125 -149 -134 -160 -9 -11 -31 -41 -49 -67 -18 -26 -38
-52 -45 -60 -19 -19 -184 -249 -254 -353 -306 -456 -598 -1017 -782 -1500 -24
-60 -49 -126 -56 -145 -21 -52 -105 -301 -105 -311 0 -5 12 -7 28 -5 15 3 74
7 132 11 58 3 119 8 136 10 17 2 71 7 120 10 49 4 105 8 124 10 19 2 69 6 110
9 41 4 95 8 120 11 25 2 74 7 110 10 36 3 81 8 100 10 19 2 73 7 120 11 47 3
92 7 100 9 8 2 53 6 100 10 47 4 87 8 90 10 3 1 45 6 94 10 50 4 97 8 105 10
9 1 50 6 91 10 41 4 83 9 93 11 10 2 46 6 80 9 34 3 73 8 87 10 14 2 54 7 90
10 36 4 72 8 80 10 8 2 44 6 80 10 36 4 72 8 80 10 8 2 44 6 80 10 36 4 72 9
81 10 9 2 40 6 70 10 30 3 65 8 79 10 14 2 50 7 80 10 30 4 62 9 71 10 9 2 40
6 69 10 29 4 60 8 69 10 9 1 41 6 71 10 30 4 64 9 74 11 11 2 54 8 95 14 42 6
90 13 106 15 72 12 92 15 129 21 21 3 47 7 56 9 10 2 40 7 67 11 26 3 57 8 68
10 93 17 134 24 160 28 57 7 340 57 525 92 102 19 199 37 215 40 17 3 98 19
180 35 83 17 159 33 170 35 119 23 620 133 755 165 47 12 92 22 100 24 31 7
317 75 350 84 87 23 124 33 139 36 9 2 86 22 171 45 85 22 163 43 173 45 105
24 826 234 1132 330 233 72 850 279 1030 345 77 28 147 53 155 55 8 2 51 17
95 33 44 17 190 72 325 122 414 155 927 361 1365 548 329 140 411 176 600 260
179 79 271 121 600 272 33 15 101 47 150 70 50 23 122 57 160 75 39 18 140 66
225 107 85 41 170 81 188 89 17 7 32 17 32 20 0 8 -182 169 -289 255 -13 10
-28 24 -35 29 -99 88 -415 320 -624 459 -194 128 -286 184 -457 280 -39 22
-86 48 -105 59 -88 50 -426 218 -525 262 -60 26 -129 56 -152 66 -222 99 -704
268 -943 329 -47 12 -92 25 -100 28 -18 6 -10 4 -140 36 -58 14 -121 28 -140
31 -19 3 -48 10 -65 15 -35 11 -172 37 -395 75 -32 6 -150 22 -215 30 -27 4
-59 8 -71 10 -11 2 -52 6 -90 10 -38 3 -82 8 -99 10 -16 2 -73 7 -125 10 -52
4 -115 9 -140 12 -48 6 -847 13 -852 8z"/>
<path d="M24955 19723 c-33 -19 -89 -51 -125 -70 -36 -20 -175 -97 -310 -171
-246 -136 -278 -153 -425 -232 -44 -23 -93 -50 -110 -60 -16 -10 -64 -35 -105
-57 -41 -22 -129 -70 -195 -105 -66 -36 -160 -87 -210 -113 -78 -41 -167 -88
-370 -197 -27 -14 -74 -39 -103 -53 -29 -15 -55 -31 -58 -36 -2 -5 3 -34 13
-66 9 -32 17 -60 18 -63 1 -3 9 -31 18 -63 10 -31 39 -144 66 -250 l49 -192
1196 -3 c955 -2 1195 0 1191 10 -2 7 -13 63 -24 123 -28 148 -26 135 -56 270
-15 66 -28 126 -30 135 -5 27 -74 296 -96 377 -20 72 -34 125 -44 163 -2 8 -4
15 -5 15 -1 0 -3 7 -5 15 -17 78 -201 640 -213 651 -4 3 -34 -9 -67 -28z"/>
<path d="M23107 13703 c-4 -7 -8 -24 -21 -88 -11 -51 -80 -312 -111 -417 -19
-65 -35 -121 -35 -125 0 -5 10 -13 23 -18 26 -13 300 -156 372 -195 87 -47
198 -106 270 -145 149 -79 291 -156 305 -165 8 -5 65 -36 125 -68 182 -97 298
-161 485 -265 19 -11 69 -38 110 -60 41 -23 143 -79 225 -125 83 -46 154 -84
159 -85 5 -1 19 25 31 58 12 33 25 67 28 75 16 41 152 476 167 535 4 17 22 82
40 145 29 108 92 354 104 410 3 14 26 117 51 230 24 113 47 221 50 240 3 19 8
43 11 53 5 16 -56 17 -1190 17 -657 0 -1197 -3 -1199 -7z"/>
<path d="M2540 13681 c0 -5 18 -94 40 -199 33 -159 53 -247 104 -462 80 -331
221 -791 356 -1161 63 -172 213 -551 261 -658 144 -319 306 -653 419 -861 100
-183 118 -216 185 -330 37 -63 76 -130 87 -148 35 -62 240 -385 321 -507 149
-223 528 -737 604 -820 10 -11 34 -40 53 -65 19 -25 44 -56 56 -70 54 -64 219
-256 224 -260 3 -3 25 -27 49 -55 233 -264 714 -748 934 -937 12 -11 40 -36
63 -56 262 -235 679 -565 999 -791 142 -101 533 -356 685 -448 178 -108 195
-117 375 -217 66 -37 136 -76 155 -87 77 -43 592 -298 695 -343 61 -27 143
-64 183 -82 41 -19 79 -34 86 -34 6 0 16 -4 22 -9 13 -12 306 -128 530 -209
290 -106 681 -231 934 -298 114 -31 411 -105 452 -113 24 -5 97 -21 163 -35
66 -15 135 -29 154 -32 18 -3 43 -8 55 -10 20 -4 88 -18 146 -29 14 -3 36 -7
50 -9 14 -3 41 -8 60 -10 19 -3 44 -7 55 -10 11 -2 40 -7 65 -10 25 -3 54 -8
65 -10 24 -4 96 -15 149 -21 22 -3 51 -7 65 -10 14 -2 46 -7 71 -10 25 -3 79
-9 120 -14 86 -11 148 -18 240 -26 36 -3 81 -8 100 -10 19 -2 78 -7 130 -10
52 -4 111 -9 130 -10 279 -27 1203 -27 1570 0 30 2 93 6 140 10 47 3 101 8
120 10 19 2 67 7 105 10 39 3 81 8 95 10 14 2 52 6 85 10 131 14 173 19 310
39 22 4 60 9 85 11 25 3 52 7 60 10 8 2 35 7 60 10 25 3 83 13 130 21 47 8 96
17 110 19 14 2 50 9 80 15 30 6 69 13 85 16 60 10 385 81 465 101 14 3 32 7
40 9 169 35 868 241 1065 314 28 10 109 40 180 65 131 48 366 139 440 171 22
10 45 18 50 20 6 1 35 13 65 27 30 14 91 41 135 60 287 124 798 380 1033 518
46 27 85 49 87 49 11 0 420 252 575 355 242 160 493 335 570 398 8 7 31 23 50
37 29 20 267 206 335 261 63 52 281 234 285 239 3 3 36 32 75 65 191 164 684
642 855 831 79 86 200 221 246 274 21 25 43 48 48 51 5 4 -2 13 -15 22 -42 26
-150 87 -154 87 -2 0 -30 15 -62 34 -61 35 -157 88 -258 142 -33 17 -150 81
-260 141 -185 101 -248 135 -440 238 -38 21 -92 50 -120 65 -91 49 -402 214
-693 366 l-112 59 -94 -95 c-118 -121 -291 -286 -386 -370 -40 -36 -95 -84
-121 -108 -26 -24 -94 -82 -151 -129 -57 -46 -112 -92 -123 -102 -52 -44 -250
-195 -364 -278 -69 -51 -131 -96 -137 -101 -5 -5 -21 -15 -35 -22 -13 -7 -26
-16 -29 -20 -20 -27 -541 -354 -725 -455 -38 -21 -108 -59 -155 -85 -218 -121
-645 -322 -905 -427 -147 -60 -412 -159 -455 -171 -19 -6 -69 -22 -110 -37
-41 -15 -82 -29 -90 -31 -8 -2 -89 -26 -180 -54 -91 -28 -172 -53 -180 -55
-339 -86 -443 -111 -582 -140 -92 -19 -182 -37 -200 -40 -18 -3 -69 -12 -113
-20 -44 -8 -93 -16 -110 -19 -63 -9 -121 -18 -135 -21 -8 -2 -40 -6 -71 -9
-31 -4 -66 -8 -77 -11 -12 -2 -52 -7 -89 -10 -37 -4 -75 -8 -83 -10 -8 -2 -51
-7 -95 -11 -44 -3 -87 -8 -95 -9 -9 -2 -63 -6 -120 -10 -58 -4 -123 -8 -145
-10 -84 -6 -446 -18 -575 -18 -140 0 -532 12 -585 18 -16 2 -75 6 -130 10 -55
3 -111 8 -125 10 -14 2 -56 6 -95 10 -38 3 -104 10 -145 15 -41 5 -99 12 -129
15 -30 4 -61 8 -70 10 -9 1 -41 6 -71 10 -61 7 -94 12 -142 21 -18 3 -49 7
-68 10 -19 2 -42 6 -50 9 -8 2 -31 7 -50 10 -97 16 -406 82 -570 122 -691 168
-1366 420 -2024 755 -188 96 -541 296 -691 393 -27 18 -93 60 -145 93 -52 34
-100 64 -105 69 -6 4 -53 37 -105 72 -227 154 -629 465 -796 616 -6 6 -42 37
-80 70 -241 210 -542 507 -760 752 -38 42 -76 84 -84 93 -21 22 -123 141 -143
165 -35 43 -90 111 -105 130 -10 11 -33 40 -52 65 -19 25 -37 47 -41 50 -18
15 -261 349 -357 491 -61 90 -115 169 -119 175 -5 5 -13 19 -20 30 -6 10 -58
96 -116 189 -215 351 -394 688 -546 1030 -39 88 -78 174 -85 190 -49 102 -196
491 -261 690 -81 247 -181 589 -201 689 -7 37 20 34 -434 51 -58 2 -170 7
-250 10 -80 3 -221 7 -315 10 -93 3 -246 7 -340 10 -196 6 -557 14 -862 20
-117 2 -213 0 -213 -4z"/>
<path d="M6670 13510 c0 -16 128 -376 180 -505 76 -190 117 -284 206 -470 26
-55 48 -102 49 -105 1 -7 52 -105 85 -165 15 -27 47 -86 70 -130 24 -44 70
-124 102 -178 32 -55 58 -103 58 -108 0 -5 4 -9 9 -9 5 0 13 -9 16 -20 16 -51
387 -584 521 -750 96 -118 154 -188 169 -204 6 -6 37 -43 70 -81 99 -116 122
-141 328 -349 202 -205 356 -350 503 -471 27 -22 64 -54 84 -71 19 -17 58 -49
86 -70 28 -21 89 -68 135 -104 451 -351 1048 -703 1584 -935 61 -26 124 -53
141 -61 196 -86 650 -242 904 -310 85 -23 205 -54 226 -59 10 -2 91 -19 179
-39 180 -39 311 -64 370 -71 22 -3 63 -9 90 -15 48 -9 103 -16 333 -45 20 -2
71 -7 112 -10 41 -4 86 -8 100 -10 173 -26 1047 -26 1260 0 31 4 70 7 215 20
43 3 124 14 165 21 14 2 52 7 85 10 33 4 63 8 66 10 4 2 27 6 50 9 69 8 263
44 389 71 63 14 124 27 135 29 11 3 90 23 175 45 85 22 164 42 175 45 178 42
767 253 985 352 36 17 85 38 110 49 25 10 144 69 265 130 442 222 804 447
1195 742 91 69 167 128 170 131 3 3 28 24 55 46 57 45 231 193 288 244 20 19
34 38 29 43 -13 13 -490 241 -817 390 -60 28 -144 66 -185 85 -81 38 -189 86
-340 153 -52 22 -113 49 -135 60 -65 30 -195 86 -265 115 -36 15 -83 35 -105
45 -22 10 -85 37 -140 60 -55 23 -113 48 -130 55 -54 24 -497 205 -502 205 -3
0 -19 7 -36 15 -40 18 -372 148 -538 210 -68 25 -133 50 -144 55 -11 5 -47 18
-80 30 -33 11 -69 25 -80 30 -11 5 -110 41 -220 80 -110 40 -236 85 -279 100
-43 16 -264 90 -490 164 -346 114 -499 163 -771 247 -33 10 -284 82 -515 147
-346 98 -992 264 -1191 306 -13 3 -51 12 -85 20 -34 8 -72 17 -85 20 -13 2
-53 11 -89 20 -36 8 -76 17 -90 20 -14 2 -45 9 -70 14 -82 19 -185 42 -210 46
-14 3 -70 14 -125 26 -55 12 -111 23 -123 25 -13 2 -45 8 -70 14 -57 13 -469
92 -497 95 -20 3 -35 6 -175 31 -41 8 -91 16 -110 19 -19 3 -46 8 -60 11 -27
6 -63 11 -125 20 -22 3 -51 7 -65 10 -47 10 -65 13 -145 24 -44 7 -102 16
-130 21 -27 5 -70 12 -95 15 -25 3 -58 8 -75 12 -16 3 -41 7 -55 9 -14 1 -59
7 -100 13 -41 6 -93 14 -115 17 -22 3 -51 7 -65 9 -14 2 -45 6 -70 10 -25 3
-56 8 -70 10 -25 4 -59 9 -159 20 -30 4 -61 8 -70 10 -9 1 -45 6 -81 10 -36 3
-72 8 -80 10 -8 2 -44 7 -80 10 -36 4 -73 9 -82 10 -9 2 -45 6 -80 10 -35 3
-76 8 -93 10 -16 3 -51 7 -77 10 -27 3 -68 7 -93 10 -25 3 -65 7 -90 10 -25 3
-64 7 -87 10 -24 3 -63 7 -88 10 -87 8 -165 15 -205 20 -22 2 -67 7 -100 10
-33 3 -78 8 -100 10 -22 2 -71 7 -110 10 -38 3 -88 8 -110 10 -22 2 -71 7
-110 10 -38 4 -90 8 -115 11 -65 6 -144 12 -230 19 -168 13 -231 18 -382 30
-21 2 -38 -1 -38 -5z"/>
</g>
</svg>
